# xmcd CD database file
#
# Track frame offsets:
#	150
#	12992
#	22638
#	32138
#	44710
#	55422
#	69308
#	80962
#	95113
#	105405
#	117083
#	125212
#	138308
#	148535
#	158440
#	170145
#
# Disc length: 2531 seconds
#
# Revision: 3
# Processed by: cddbd v1.5.1PL2 Copyright (c) Steve Scherf et al.
# Submitted via: CDex 1.51
#
DISCID=de09e110
DTITLE=Wynn Osborne, et al. - The Banjos That Destroyed The World
DYEAR=1995
DGENRE=Country
TTITLE0=Intro: The Banjos Prepare For Battle - Bluegrass Breakdown - Wynn Osborne and Special Guest, Itisi
TTITLE1=Randy Lynn Rag - Wynn Osborne
TTITLE2=Maryville Breakdown - Pinnacle Boys
TTITLE3=Flint Hill Special - Wynn Osborne
TTITLE4=Banjo Signal - Wynn Osborne
TTITLE5=Paperback Writer - The Nashville Superpickers
TTITLE6=Dear Old Dixie - Wynn Osborne
TTITLE7=Take It Easy - The Nashville Superpickers
TTITLE8=Heartbreak Mountain - The Stonemans
TTITLE9=Bugle Call Rag - Wynn Osborne
TTITLE10=Charlotte Breakdown - Don Reno
TTITLE11=Farewell Blues - Wynn Osborne
TTITLE12=Earl's Breakdown - Wynn Osborne
TTITLE13=Limehouse Blues - Don Reno
TTITLE14=Foggy Mountain Breakdown - Wynn Osborne
TTITLE15=I've Got A Woman - Wynn Osborne
EXTD=YEAR: 1995
EXTT0=
EXTT1=
EXTT2=
EXTT3=
EXTT4=
EXTT5=
EXTT6=
EXTT7=
EXTT8=
EXTT9=
EXTT10=
EXTT11=
EXTT12=
EXTT13=
EXTT14=
EXTT15=
PLAYORDER=
